<?xml version="1.0" encoding="utf-8"?>
<!-- Generator: Adobe Illustrator 12.0.0, SVG Export Plug-In . SVG Version: 6.00 Build 51448)  -->
<!DOCTYPE svg PUBLIC "-//W3C//DTD SVG 1.1//EN" "http://www.w3.org/Graphics/SVG/1.1/DTD/svg11.dtd" >
<svg  version="1.1" id="Layer_1" xmlns="http://www.w3.org/2000/svg" xmlns:xlink="http://www.w3.org/1999/xlink" width="516" height="472" viewBox="0 0 516 472"
	 overflow="visible" enable-background="new 0 0 516 472" xml:space="preserve">
<g>
	<path fill-rule="evenodd" clip-rule="evenodd" d="M483.85,40.228c0.488,0.474,0.977,0.95,1.465,1.425
		c0.051-1.474,0.895-3.347-0.773-4.275c-0.981-0.546-2.197-0.222-3.052,0.407C482.329,38.552,483.083,39.391,483.85,40.228
		 M506.471,86.184c-0.264-3.883-0.567-7.342-2.767-10.644c-1.974-2.962-4.549-5.616-7.689-7.347c-3.214-1.77-6.203-2-7.813-5.415
		c-0.349-0.739-1.043-0.778-0.772-1.729c0.24-0.84,1.411-0.678,1.952-0.305c0.016-1.127,0.313-4.62-0.569-5.007
		c0.7-1.507-0.411-4.797-0.447-6.635c-0.745,0.44-1.482,0.895-2.196,1.383c0.66-1.061,1.325-2.118,1.993-3.174
		c-1.219-0.26-1.89-1.358-1.587-2.564c-3.47-0.083-7.544-6.109-9.521-8.548c-0.146,2.114-2.267,0.139-2.807-0.571
		c-0.755-0.99-1.35-2.442-2.076-3.174c-1.189-1.199-2.713-2.181-4.087-3.155c-2.731-1.933-5.597-3.721-8.646-5.108
		c-2.441-1.11-4.679-2.8-7.12-4.111c0.531,1.059,0.948,2.121,1.466,3.174c-0.818-0.64-4.561-4.269-5.515-4.009
		c-2.016,0.55,0.447,2.708,0.998,3.319c-0.831-0.394-7.508-3.124-3.946-0.652c-1.08-0.376-3.398-2.144-3.459,0
		c-1.993-0.557-4.975-0.739-6.509-1.71c-1.099-0.693-2.826-2.452-4.15-2.402c0.246,0.641,0.759,1.355,1.058,2.036
		c-3.635-1.435-7.277-0.665-11.034-0.54c-1.35,0.045-2.726-0.202-4.06-0.09c-1.09,0.09-1.727,1.043-2.679,1.021
		c-8.627-0.216-16.056,1.894-24.377,3.558c-16.271,3.253-29.62,12.291-40.277,24.872c-5.589,6.597-10.319,13.901-15.46,20.849
		c-4.199,5.677-7.407,12.058-12.776,16.723c-5.781,5.025-13.563,8.717-20.535,11.856c-3.353,1.509-6.772,3.358-10.426,4.019
		c-3.808,0.688-7.661-0.083-11.493,0.317c-3.889,0.405-8.607-1.919-12.337-3.045c-4.181-1.261-8.424-2.334-12.654-3.414
		c-8.034-2.051-16.216-3.585-24.419-4.772c-9.042-1.308-18.078-2.643-27.131-3.866c-8.607-1.164-17.316-1.894-25.74-4.086
		c-15.89-4.14-23.176-20.612-35.683-29.708c-6.946-5.053-14.49-8.385-23.086-9.248c-2.04-0.204-4.057-0.246-6.102-0.122
		c-1.605,0.095-3.037-2.732-4.252-3.949c-2.959-2.96-6.185-5.528-9.775-7.683c-1.419-0.853-2.559-1.951-4.241-2.371
		c-2.295-0.575-3.512,0.238-5.269-1.466c-3.079-2.989-6.217-5.908-9.39-8.798C72.818,14.201,66.743,9.294,58.289,7.47
		c-2.028-0.436-4.085-0.79-6.166-0.829c-1.795-0.034-3.24-0.715-5.024-0.79c-1.853-0.077-2.719,1.317-4.209,1.592
		c-2.404,0.448-4.806,0.891-7.201,1.386c-8.222,1.697-11.518,9.266-11.846,17.151c-0.267,6.395-1.115,12.424-0.977,18.938
		c0.147,6.901,1.488,13.672,3.322,20.303c-7.098,0.825-7.796,11.598-5.249,16.485c-3.493,1.213-5.63,4.781-5.94,8.346
		c-0.127,1.462,0.008,3.041,0.61,4.396c0.667,1.5,2.12,2.398,2.035,3.583c-0.095,1.321-1.083,3.048-1.18,4.64
		c-0.119,1.951-0.068,3.961,0.203,5.902c0.487,3.48,1.786,6.939,3.539,9.972c-2.998,0.48-7.148,0.894-7.648,4.6
		c-0.446,3.308,0.968,7.043,0.712,10.503c-0.523,7.067,3.922,14.563,9.865,18.195c0.499,0.305,2.167,0.784,2.441,1.222
		c0.24,0.382-0.023,2.193,0,2.687c0.085,1.834,0.273,3.724,0.633,5.527c0.681,3.408,1.801,6.684,3.45,9.747
		c3.462,6.433,9.001,11.054,15.25,14.642c0.214,0.123,0.429,0.245,0.643,0.369c-2.083,2.486-2.73,5.901-3.119,9.01
		c-0.517,4.138-1.15,8.157-0.501,12.321c1.256,8.061,6.623,13.307,13.426,17.217c-0.666,0.786-1.549,1.434-2.194,2.249
		c-0.532,0.673-1.916,1.286-2.24,1.946c-0.132,0.266,0.582,0.651,0.427,1.139c-0.854,2.685-0.192,3.274,1.606,5.291
		c-1.688,0.937-4.355,4.545-0.529,4.194c-0.4,1.72-4.142,1.481-3.743,3.866c0.402,2.404,3.373,0.786,4.76,0.204
		c-1.249,1.682-5.355,1.786-6.103,3.745c-1.028,2.695,2.096,2.338,3.581,1.792c0.63,1.607-4.307,2.295-5.004,3.949
		c-0.381,0.905-0.021,1.657,0.712,2.097c1.063,0.637,1.811-0.152,2.868-0.672c-0.863,1.272-2.292,2.703-2.705,4.192
		c-0.122,0.437,0.044,0.729-0.021,1.099c-0.144,0.82-0.198,1.544-0.529,2.604c0.899-0.753,1.813-1.175,2.522,0
		c-1.255,0.804-4.592,5.333-0.936,4.397c-1.308,1.961-0.977,3.676,1.383,3.988c0.996,0.132,1.939-0.494,2.727-0.122
		c0.865,0.408,1.246,1.748,1.627,2.484c1.266,2.443,2.699,4.645,4.507,6.722c0.898,1.032,1.954,1.964,3,2.844
		c1.506,1.268,1.077,1.315,0.712,3.176c-0.394,2.01-0.678,5.313,0.447,7.143c0.532,0.865,1.601,1.358,2.542,1.649
		c1.332,0.409,1.52,0.514,2.36,1.688c0.65,0.91-0.131,2.319,0.752,3.317c0.766,0.866,1.813,0.741,2.807,0.856
		c1.793,0.207,3.865,0.474,5.697-0.204c-1.881,1.513-5.393,3.722-5.249,6.595c0.121,2.402,3.604,2.466,5.614,1.791
		c0,2.315,0.903,3.349,3.417,2.89c1.182-0.216,1.632-1.087,2.604-1.507c1.28-0.553,0.524-0.181,1.953,0
		c2.651,0.336,4.094,0.933,5.082,3.898c0.898,2.697,0.309,5.337,0.449,8.172c0.092,1.873-1.329,10.819,2.403,9.688
		c1.229-0.373,2.355-1.363,3.581-1.363c1.468,0,2.871-0.688,4.19-1.303c-2.1,1.72-1.546,9.201,1.913,8.629
		c0.445-0.074,1.717-1.184,1.993-0.976c0.493,0.368,1.025,0.618,1.648,0.55c1.143-0.128,2.013-1.04,3.193-1.16
		c-0.242,1.47,0.698,2.086,1.974,2.136c1.754,0.072,3.289,0.88,4.333,2.301c0.92,1.256,1.159,2.89,2.091,4.15
		c1.414,1.913,3.25,3.471,5.197,4.828c1.954,1.362,3.956,2.462,6.116,3.457c1.368,0.629,0.424,3.69,1.323,5.189
		c2.08,3.467,6.092,1.549,7.324-1.263c2.427,3.664,4.079,6.679,8.991,4.112c1.338,3.885,5.802,5.913,8.259,9.078
		c1.344,1.732,2.81,3.037,4.921,3.722c1.651,0.534,4.351-0.507,5.301,0.725c2.228,2.886,4.468,6.91,8.614,6.829
		c3.237-0.063,3.877-2.835,3.947-5.659c1.678,1.729,2.662,2.521,3.173,4.845c0.469,2.133,1.16,4.203,1.647,6.324
		c0.942,4.115,1.422,8.129,1.571,12.342c0.278,7.868,0.497,15.521-1.304,23.221c-0.495,2.116-0.064,7.979-1.627,9.443
		c-0.715,0.669-4.222,0.848-5.29,1.182c-2.104,0.659-4.075,1.585-6.033,2.586c-1.821,0.932-6.164,4.406-3.813,6.897
		c1.877,1.988,5.198-0.357,7.039-0.854c1.464-0.396,3.019,0.172,4.556,0.204c1.685,0.035,3.17-0.813,4.068,0.712
		c1.911,3.245,5.604,3.507,9.032,3.847c2.79,0.276,5.969,2.334,8.422,3.867c3.183,1.989,7.781,1.777,11.418,1.995
		c4.334,0.258,8.66,0.394,13.002,0.444c1.937,0.022,3.878-0.041,5.815-0.063c1.902-0.021,2.705,1.321,4.376,2.157
		c1.398,0.699,2.888,1.046,4.447,1.146c1.371,0.089,3.358,1.557,4.698,2.196c1.668,0.799,3.323,1.904,4.537,3.317
		c1.007,1.173,1.335,2.866,2.44,3.908c3.893,3.667,4.892-1.852,5.469-4.677c0.827-4.045-3.063-7.076-5.998-9.408
		c4.73,0.166,9.7-1.493,14.322-0.589c2.909,0.568,5.218,1.844,7.516,3.684c0.664,0.532,1.739,1.019,2.289,1.629
		c0.687,0.76,0.438,1.957,1.058,2.727c2.654,3.3,4.139-2.571,3.987-4.274c-0.383-4.301-5.646-7.673-9.235-9.647
		c4.735,1.1,10.264,2.264,14.401,4.963c3.309,2.157,4.896,5.905,7.201,8.593c2.748,3.204,4.403,0.044,4.721-3.216
		c0.485-4.98-1.49-9.083-5.452-11.927c2.389-0.679,0.817-4.699-0.077-6.013c-1.989-2.921-5.688-4.784-9.118-5.386
		c2.856-1.107,6.121-0.61,8.625,1.06c1.404,0.936,1.57,1.61,1.994,3.093c0.294,1.031,1.04,2.687,2.116,3.135
		c1.626,0.68,3.738-0.816,4.353-2.279c0.92-2.19-0.356-4.94-1.505-6.799c-8.175-13.215-28.89-5.021-40.777-4.09
		c-3.581,0.281-7.144,0.425-10.738,0.353c-3.417-0.068-5.078,0.141-5.078-3.568c0-2.87,0.531-5.783,0.285-8.65
		c-0.288-3.336-1.345-6.846-2.295-10.045c-1.979-6.67-3.306-13.504-4.064-20.418c-0.163-1.489-0.325-2.992-0.378-4.49
		c-0.019-0.526-0.392-2.313-0.098-2.741c0.339-0.493,1.5,0.304,1.77-0.509c0.387-1.166-0.582-2.365-1.096-3.395
		c-0.809-1.619-0.574-3.144-0.388-4.93c1.066,1.381,2.561,1.674,3.442,3.184c0.55,0.942,1.129,2.857,2.293,2.271
		c-1.897-3.064-2.276-5.327-3.744-8.548c0.599,0.633,0.926,1.292,1.669,1.791c-1.094-1.649-1.414-3.438-2.581-5.246
		c-0.637-0.987-1.784-3.95-1.285-5.012c2.042,3.764,4.463,7.343,6.331,11.192c0.731,1.505,1.521,2.39,2.866,3.34
		c0.811,0.572,1.65,1.422,2.562,1.832c-0.547-1.048-1.038-1.742-0.569-2.89c0.527,0.257,1.596,0.334,1.975,0.712
		c0.418,0.42,1.282,1.97,1.81,2.056c1.428,0.232-0.687-1.979-0.841-2.19c-1.919-2.618-3.215-6.77-4.814-9.818
		c0.637,0.778,1.379,1.44,2.158,2.076c0.002-0.183,0.109-0.257,0.202-0.366c-3.021-2.984-4.508-8.726-5.736-12.619
		c3.113,4.438,6.527,9.28,10.253,12.985c1.251,1.244,5.082,2.565,3.072-0.428c-1.956-2.912-3.684-5.932-5.269-9.057
		c2.429,3.356,4.852,9.188,9.602,8.63c-0.751-0.646-1.23-1.613-0.651-2.525c0.495,0.417,5.19,3.385,4.454,1.914
		c-0.314-0.629,0.156-0.902-0.262-1.574c-0.753-1.212-1.493-2.401-2.443-3.474c2.065,1.703,4.368,3.106,6.307,4.905
		c0.688,0.639,1.321,1.563,2.034,0.673c0.377-0.474-1.311-2.095-1.668-2.525c0.285,0.203,0.569,0.408,0.854,0.611
		c-1.016-1.695-2.525-2.987-3.581-4.6c-0.906-1.381-1.468-2.926-2.606-4.246c-1.022-1.187-0.094-2.141,0.594-3.101
		c0.457-0.642,3.602,0.409,4.401,0.475c4.065,0.34,7.284-1.879,10.989-3.087c3.941-1.285,7.914-2.492,11.807-3.922
		c7.889-2.896,15.98-5.992,23.575-9.566c3.015-1.419,5.425-3.509,8.26-5.129c2.964-1.693,4.622-4.98,8.243-5.282
		c14.936-1.244,31.018-6.958,42.954-16.142c12.047-9.267,20.615-22.146,26.125-36.277c6.078-15.59,10.932-31.754,18.538-46.72
		c3.729-7.335,7.561-14.145,12.822-20.512c4.927-5.961,9.115-11.079,11.867-18.433c2.602-6.955,2.042-14.135,2.585-21.375
		c0.604-8.052-0.167-16.313,0.874-24.311c0.54-4.141,1.114-8.411,2.413-12.396c1.359-4.167,3.283-8.064,4.726-12.177
		c1.074-3.065,1.184-5.99,0.591-9.16c-0.103-0.54,2.351-3.403,2.949-3.786c1.085-0.693,2.548-0.271,3.946-0.386
		c3.861-0.323,6.322-3.986,8.788-6.453c0.945-0.945,1.608-2.25,2.292-3.389c0.756-1.26,2.32-1.974,3.498-2.775
		c2.355-1.599,4.956-3.006,7.514-4.257c3.589-1.757,3.758-1.498,7.12,0.122c2.626,1.266,5.449,2.24,8.297,2.841
		c4.429,0.933,9.094-0.641,11.109,4.12C506.731,88.479,506.53,87.379,506.471,86.184 M195.516,352.606
		C195.566,352.259,195.566,352.255,195.516,352.606 M199.707,368.971c-0.201-1.33-0.392-2.652-0.529-3.989
		C199.345,365.888,200.15,368.742,199.707,368.971 M215.044,367.342c0.547,1.951,3.375,4.274,2.727,6.188
		c-0.592-1.888-2.351-2.261-2.646-4.029c-0.487-2.927-2.1-5.892-2.073-8.833C213.716,362.892,214.381,365.117,215.044,367.342
		 M214.881,370.722c-1.175,0.293-1.412-0.614-1.503-1.67C213.891,369.611,214.421,370.138,214.881,370.722 M218.544,417.696
		c-0.279,3.732-0.975,7.332-1.912,10.95c-8.201-13.087-12.958-27.787-12.125-43.353c1.578,0.762,1.838,2.247,2.646,3.745
		c0.329-0.339,0.425-0.287,0.174-0.865c-0.673-1.556-0.427-1.969-0.54-3.286c-0.218-2.507-1.191-5.03-1.792-7.491
		c1.899,1.73,2.383,4.194,3.414,6.512c1.437,3.233,2.066,2.443,1.103-0.486c0.797,0.521,1.108,1.832,1.79,2.646
		c-0.112-0.572-1.25-2.4-0.996-2.992c0.387-0.903,0.199-1.24-0.146-2.164c-0.926-2.475-3.198-6.188-2.804-8.928
		c2.105,4.064,2.481,9.149,5.41,12.66c-1.63-7.495-3.279-15.384-4.393-23.284c0.344,2.284,1.599,4.283,2.216,6.492
		c0.516,1.846,0.979,3.037,1.097,4.601c0.394,5.233,2.179,10.076,3.358,15.162C217.293,397.3,218.913,407.733,218.544,417.696
		 M219.073,368.971C219.011,368.438,219.07,368.938,219.073,368.971 M222.002,431.374
		C221.774,431.395,222.054,431.369,222.002,431.374 M285.227,441.307c0.24,0.064,0.43,0.059,0.651,0.203
		c-0.438-0.104-0.896-0.25-1.302-0.366C284.793,441.198,285.01,441.252,285.227,441.307 M426.158,26.795
		c0.478,0.177,0.72-0.005,0.936,0.488C426.783,27.121,426.47,26.958,426.158,26.795 M481.042,66.036
		c-0.267-0.079-0.57,0.404-0.407-0.244c0.312,0.041,0.624,0.081,0.936,0.122C481.394,65.954,481.219,65.995,481.042,66.036
		 M475.266,32.372C475.112,32.477,475.052,32.519,475.266,32.372"/>
	<path fill-rule="evenodd" clip-rule="evenodd" fill="#A51C21" d="M484.867,37.215c0.522-1.769-1.507-4.797-2.728-2.238
		c-0.763-0.643-0.309-1.756-1.239-2.421c-1.481-1.058-2.639,0.797-2.503,2.218c-3.723-2.843-4.481-3.103-5.493,1.446
		c-0.307,1.383,0.774,1.908,0.774,2.971c0,2.282,1.248,4.311,2.206,6.303c1.635,3.392,4.174,7.562,2.265,11.129
		c-0.821,1.535-1.831,2.421-3.169,3.389c-0.987,0.714-2.97,1.702-2.117,3.093c-5.418,0.605-8.834-8.684-12.083-11.662
		c-2.662-2.44-5.549-2.947-8.869-3.846c-0.181-0.048-0.157-0.64-0.65-0.691c-0.768-0.082-1.549,0.209-2.278,0.407
		c-1.18,0.318-2.162,0.833-3.451,0.809c-3.81-0.067-6.794,1.354-10.451,1.877c-2.309,0.328-3.27,1.01-1.68,2.564
		c1.26,1.231,2.278,2.003,3.052,3.745c0.691,1.557,0.587,3.939,1.342,5.292c0.41,0.735,0.517,1.138,1.506,1.038
		c1.018-0.103,1.202,2.97,0.834,3.174c-0.062,0.034-0.123,0.069-0.184,0.103c-0.367-0.619-2.219-1.38-2.664-0.488
		c-0.374,0.748,0.56,0.759,0.59,1.14c0.052,0.658-0.022,1.939,0.04,2.89c-2.051-0.513-4.058-0.839-6.163-1.038
		c-2.054-0.193-2.678-0.673-4.496-1.2c-0.264-0.077-1.655,0.142-1.749,0.081c-0.704-0.457-1.163-2.166-1.627-2.89
		c-0.755-1.177-1.587-1.983-1.751-3.462c0.936,0.766,2.15,1.459,3.378,1.019c-0.633-0.504-1.745-1.549-2.198-2.239
		c-0.373-0.57-0.22-1.835-1.017-2.198c-3.395-1.547-1.87,7.554-2.237,8.467c-0.336,0.833-1.903,1.236-2.441,2.239
		c-0.259,0.484-0.289,1.38-0.468,1.954c-0.224,0.718-0.443,2.239,0.306,2.401c0.175,0.038,0.776-1.109,1.302-1.22
		c-1.066,1.515-0.6,7.067-0.089,9.036c0.786,3.033,2.34,5.117,3.688,7.816c0.609,1.221,2.104,2.113,2.869,3.297
		c0.932,1.439,1.535,3.013,1.919,4.721c0.691,3.06,1.179,6.972,2.963,9.648c0.981,1.473,2.845,0.077,3.662-0.693
		c1.976-1.857,1.491-4.219,2.726-6.227c4.049-6.578,12.969-11.058,19.732-14.066c1.746-0.776,3.757-1.759,5.695-1.81
		c-7.797,4.567-16.525,7.681-22.905,14.573c-2.998,3.239,1.016,3.27,3.702,4.071c1.338,0.398,1.737,0.299,2.299,1.425
		c0.72,1.442,3.838-0.69,4.617-1.263c-0.307,0.863-2.041,3.591-1.586,4.111c1.017,1.166,4.979-5.245,5.411-5.657
		c2.263-2.16,6.108-1.635,8.828-3.216c2.032-1.181,3.741-3.351,4.842-5.413c0.579-1.088,0.907-2.264,1.221-3.441
		c0.206-0.776,2.874-1.502,3.54-1.803c2.76-1.235-0.563-2.443-1.466-3.347c-2.052-2.052,5.357-4.94,6.836-5.128
		c3.404-0.433,7.13,0.469,10.618,0.285c0.427-0.022,0.841,0.585,1.302,0.244c0.696-0.515-0.025-0.783,0.081-0.936
		c-0.151,0.217-0.624-0.291-0.365-0.652c0.109-0.153,0.888,0.293,1.058,0.041c0.54-0.808,1.492-0.467-0.285-1.302
		c-1.849-0.87-4.805,0.205-6.795,0.203c-3.613-0.004-6.768-0.983-10.374-0.773c-4.264,0.247-8.169,0.117-12.449,0.732
		c-0.073-0.208-0.275-1.084-0.285-1.303c2.471-0.977,4.681-2.646,7.182-2.646c0.976,0,1.479-0.439,2.339-0.652
		c1.24-0.307,2.354-0.357,3.748-0.262c1.891,0.129,6.012,4.132,7.988,1.932c0.958-1.065,1.221-2.163,0.753-3.622
		c1.713,1.181,0.867-0.423,1.099-1.059c0.351-0.961-0.103-1.124,0.774-1.892c0.748-0.657,2.392-0.477,3.295-0.306
		c1.044,0.198,3.586,2.416,4.271,0.693c0.24-0.604-0.52-1.43-0.895-1.956c3.392-0.201,3.563-0.703,1.057-3.052
		c-0.144-0.135-1.608-0.215-1.017-0.61c0.502-0.336,0.706-0.617,0.61-1.222c-0.306-1.941-2.498-1.389-0.875-3.602
		c1.916-2.612,2.331-2.87,1.119-5.903c-0.432-1.08,1.502-5.05-1.383-4.621c0.448-1.307,1.824-3.83,1.139-5.209
		c-0.875-1.762-2.118-0.774-3.051,0.447c-1.754,2.293-1.678,1.387-1.424-1.282C486.613,38.466,486.302,37.375,484.867,37.215
		 M451.261,48.817c4.545,0.526,8.14,2.608,10.943,6.269c-0.21,0.708-0.779,0.309-1.18,0.772c-0.454,0.528-1.062-0.081-1.168,0.821
		c-0.087,0.728,0.011,1.795-0.438,2.396c-1.613,2.152-3.901,3.341-6.775,3.093c-2.504-0.214-4.693-1.786-6.164-3.744
		c-1.307-1.745-1.185-4.347-3.029-5.659c0.978-0.553,1.808-1.321,2.766-1.873c1.772-1.02,3.917-1.12,6.007-0.655
		c1.629,0.362,3.34,1.302,4.612,2.365c0.974,0.812,1.414,1.846,2.848,1.913C459.464,51.7,453.644,49.138,451.261,48.817
		 M443.042,55.493c1.363,5.142,6.243,9.247,11.678,8.426c2.372-0.358,5.609-1.216,7.2-3.093c-2.565,2.971-5.984,4.463-9.928,4.315
		c-2.965-0.112-4.909-1.024-6.834-3.339c-1.164-1.401-3.684-5.681-2.401-7.448C442.851,54.729,442.979,55.108,443.042,55.493
		 M481.57,55.94C481.506,56.072,481.474,56.135,481.57,55.94 M472.376,76.985c-3.741,0.238-7.848,0.945-11.738,1.819
		c-1.813,0.408-5.368,1.846-7.058,0.907c1.877-0.555,3.22-1.592,4.719-2.727c-0.188,1.68,4.11,0.081,5.087-0.041
		C466.383,76.573,469.384,76.702,472.376,76.985 M431.609,92.983c0.034-0.209-0.05-0.526-0.081-0.734
		c0.122,0.028,0.244,0.055,0.366,0.082C431.719,92.526,431.65,92.729,431.609,92.983 M433.196,100.879
		C433.022,101.171,432.918,101.342,433.196,100.879"/>
	<path fill-rule="evenodd" clip-rule="evenodd" fill="#FFCC33" d="M450.406,50.853c-5.702,2.027-3.214,11.365,2.828,11.011
		C460.274,61.45,457.269,49.452,450.406,50.853 M451.87,59.604c-4.061-1.567-1.747-8.353,1.873-5.903
		C456.103,55.299,455.029,60.403,451.87,59.604"/>
</g>
</svg>
