<!--?xml version="1.0" standalone="no"?-->

<svg xmlns="http://www.w3.org/2000/svg" width="300.000000pt" height="300.000000pt" viewBox="0 0 300.000000 300.000000" preserveAspectRatio="xMidYMid meet">
<g transform="translate(0.000000,300.000000) scale(0.100000,-0.100000)" fill="#060606" stroke="none">
<path style="position: relative;" d="M1930 2801 c-92 -30 -160 -101 -185 -196 -49 -179 77 -346 260 -348
110 -1 195 47 251 140 26 43 29 57 29 133 0 68 -5 93 -22 126 -27 51 -77 100
-128 126 -43 23 -161 34 -205 19z" id="node1" class="node"></path>
<path style="position: relative;" d="M1665 2376 c-35 -15 -60 -42 -69 -73 -4 -12 -49 -52 -102 -89 -51
-37 -94 -71 -94 -75 0 -24 28 -14 92 33 101 74 127 90 138 83 17 -11 86 26
104 55 17 29 15 70 -4 70 -5 0 -14 2 -22 5 -7 2 -26 -2 -43 -9z" id="node2" class="node"></path>
<path style="position: relative;" d="M1405 2318 c-30 -26 -44 -78 -45 -161 0 -48 -6 -70 -36 -122 -37 -67
-60 -130 -43 -120 5 4 9 13 9 20 0 18 42 105 51 105 3 0 9 -40 12 -90 8 -133
39 -183 119 -196 27 -5 51 3 120 39 48 24 90 42 93 39 3 -3 5 -319 5 -702 l0
-697 23 -34 c28 -42 60 -59 112 -59 51 0 97 28 118 73 15 31 17 80 17 396 l0
361 50 0 50 0 1 -357 c0 -250 4 -368 12 -393 7 -20 27 -44 47 -58 29 -20 44
-23 89 -19 47 3 59 9 88 40 l33 37 0 695 c0 423 4 695 9 695 43 0 181 -343
181 -449 0 -32 42 -76 80 -86 59 -14 120 36 120 99 0 46 -40 220 -65 281 -78
191 -156 314 -274 429 -148 145 -152 146 -364 146 -223 0 -230 -3 -353 -126
l-99 -99 -5 94 -5 93 -63 -46 c-65 -48 -80 -54 -100 -34 -25 25 -10 47 76 109
48 34 89 64 92 67 3 2 -8 15 -23 28 -37 32 -96 33 -132 2z" id="node3" class="node"></path>
<path style="position: relative;" d="M875 1916 c-38 -13 -137 -44 -220 -71 -82 -26 -159 -51 -170 -55 -11
-5 -37 -14 -57 -20 -20 -6 -40 -19 -43 -30 -3 -10 17 -89 45 -176 128 -397
118 -374 152 -374 11 0 60 14 110 30 49 17 96 30 104 30 12 0 14 -70 12 -512
l-3 -513 -125 -2 c-69 -2 -135 -5 -146 -8 -24 -5 -36 -27 -28 -50 5 -13 52
-15 334 -15 290 0 329 2 334 16 8 21 8 20 -10 38 -12 13 -41 16 -155 16 l-139
0 0 529 0 528 73 23 c39 12 79 25 87 29 8 5 41 16 72 25 30 9 58 23 62 31 5
15 -28 126 -128 425 -48 145 -47 145 -161 106z" id="node4" class="node"></path>
<path style="position: relative;" d="M1522 223 l3 -78 513 -3 512 -2 0 80 0 80 -515 0 -516 0 3 -77z" id="node5" class="node"></path>
</g>
<g transform="translate(0.000000,300.000000) scale(0.100000,-0.100000)" fill="#9F9F9F" stroke="none">

</g>
</svg>